# Tiled2Unity generated file. Do not modify by hand.
# Wavefront file for 'untitled_mesh_0004.obj'

# Vertices (Count = 80)
v -1920 -832 0
v -1984 -832 0
v -1984 -768 0
v -1920 -768 0
v -1984 -832 0
v -2048 -832 0
v -2048 -768 0
v -1984 -768 0
v -1792 -896 0
v -1856 -896 0
v -1856 -832 0
v -1792 -832 0
v -1856 -896 0
v -1920 -896 0
v -1920 -832 0
v -1856 -832 0
v -1920 -896 0
v -1984 -896 0
v -1984 -832 0
v -1920 -832 0
v -1984 -896 0
v -2048 -896 0
v -2048 -832 0
v -1984 -832 0
v -1792 -960 0
v -1856 -960 0
v -1856 -896 0
v -1792 -896 0
v -1856 -960 0
v -1920 -960 0
v -1920 -896 0
v -1856 -896 0
v -1920 -960 0
v -1984 -960 0
v -1984 -896 0
v -1920 -896 0
v -1984 -960 0
v -2048 -960 0
v -2048 -896 0
v -1984 -896 0
v -1792 -1024 0
v -1856 -1024 0
v -1856 -960 0
v -1792 -960 0
v -1856 -1024 0
v -1920 -1024 0
v -1920 -960 0
v -1856 -960 0
v -1920 -1024 0
v -1984 -1024 0
v -1984 -960 0
v -1920 -960 0
v -1984 -1024 0
v -2048 -1024 0
v -2048 -960 0
v -1984 -960 0
v -1792 -1088 0
v -1856 -1088 0
v -1856 -1024 0
v -1792 -1024 0
v -1856 -1088 0
v -1920 -1088 0
v -1920 -1024 0
v -1856 -1024 0
v -1920 -1088 0
v -1984 -1088 0
v -1984 -1024 0
v -1920 -1024 0
v -1984 -1088 0
v -2048 -1088 0
v -2048 -1024 0
v -1984 -1024 0
v -1984 -1152 0
v -2048 -1152 0
v -2048 -1088 0
v -1984 -1088 0
v -1984 -1216 0
v -2048 -1216 0
v -2048 -1152 0
v -1984 -1152 0

# Texture cooridinates (Count = 17)
vt 0.46875 0.90625
vt 0.5 0.90625
vt 0.5 0.9375
vt 0.46875 0.9375
vt 0.53125 0.90625
vt 0.53125 0.9375
vt 0.5625 0.9375
vt 0.5625 0.96875
vt 0.53125 0.96875
vt 0.5 0.875
vt 0.53125 0.875
vt 0.46875 0.875
vt 0.46875 0.84375
vt 0.5 0.84375
vt 0.53125 0.84375
vt 0.5625 1
vt 0.53125 1

# Normal
vn 0 0 -1

# Mesh description
g untitled_mesh_0004

# Faces
f 1/1/1 2/2/1 3/3/1 4/4/1
f 5/2/1 6/5/1 7/6/1 8/3/1
f 9/1/1 10/2/1 11/3/1 12/4/1
f 13/2/1 14/5/1 15/6/1 16/3/1
f 17/6/1 18/7/1 19/8/1 20/9/1
f 21/10/1 22/11/1 23/5/1 24/2/1
f 25/12/1 26/10/1 27/2/1 28/1/1
f 29/10/1 30/11/1 31/5/1 32/2/1
f 33/10/1 34/11/1 35/5/1 36/2/1
f 37/10/1 38/11/1 39/5/1 40/2/1
f 41/12/1 42/10/1 43/2/1 44/1/1
f 45/10/1 46/11/1 47/5/1 48/2/1
f 49/10/1 50/11/1 51/5/1 52/2/1
f 53/10/1 54/11/1 55/5/1 56/2/1
f 57/13/1 58/14/1 59/10/1 60/12/1
f 61/14/1 62/15/1 63/11/1 64/10/1
f 65/14/1 66/15/1 67/11/1 68/10/1
f 69/9/1 70/8/1 71/16/1 72/17/1
f 73/12/1 74/10/1 75/2/1 76/1/1
f 77/13/1 78/14/1 79/10/1 80/12/1

