# Tiled2Unity generated file. Do not modify by hand.
# Wavefront file for 'untitled_mesh_0003.obj'

# Vertices (Count = 24)
v -320 -576 0
v -384 -576 0
v -384 -512 0
v -320 -512 0
v -384 -576 0
v -448 -576 0
v -448 -512 0
v -384 -512 0
v -448 -576 0
v -512 -576 0
v -512 -512 0
v -448 -512 0
v -320 -640 0
v -384 -640 0
v -384 -576 0
v -320 -576 0
v -384 -640 0
v -448 -640 0
v -448 -576 0
v -384 -576 0
v -448 -640 0
v -512 -640 0
v -512 -576 0
v -448 -576 0

# Texture cooridinates (Count = 12)
vt 0 0.875
vt 0.08333334 0.875
vt 0.08333334 1
vt 0 1
vt 0.1666667 0.875
vt 0.1666667 1
vt 0.25 0.875
vt 0.25 1
vt 0 0.75
vt 0.08333334 0.75
vt 0.1666667 0.75
vt 0.25 0.75

# Normal
vn 0 0 -1

# Mesh description
g untitled_mesh_0003

# Faces
f 1/1/1 2/2/1 3/3/1 4/4/1
f 5/2/1 6/5/1 7/6/1 8/3/1
f 9/5/1 10/7/1 11/8/1 12/6/1
f 13/9/1 14/10/1 15/2/1 16/1/1
f 17/10/1 18/11/1 19/5/1 20/2/1
f 21/11/1 22/12/1 23/7/1 24/5/1

