# Tiled2Unity generated file. Do not modify by hand.
# Wavefront file for 'untitled_mesh_0008.obj'

# Vertices (Count = 52)
v -1280 -64 0
v -1344 -64 0
v -1344 0 0
v -1280 0 0
v -832 -128 0
v -896 -128 0
v -896 -64 0
v -832 -64 0
v -1088 -256 0
v -1152 -256 0
v -1152 -192 0
v -1088 -192 0
v -832 -384 0
v -896 -384 0
v -896 -320 0
v -832 -320 0
v -1088 -448 0
v -1152 -448 0
v -1152 -384 0
v -1088 -384 0
v -704 -704 0
v -768 -704 0
v -768 -640 0
v -704 -640 0
v -704 -1024 0
v -768 -1024 0
v -768 -960 0
v -704 -960 0
v -640 -1216 0
v -704 -1216 0
v -704 -1152 0
v -640 -1152 0
v -960 -1280 0
v -1024 -1280 0
v -1024 -1216 0
v -960 -1216 0
v -1728 -1472 0
v -1792 -1472 0
v -1792 -1408 0
v -1728 -1408 0
v -768 -1536 0
v -832 -1536 0
v -832 -1472 0
v -768 -1472 0
v -512 -1728 0
v -576 -1728 0
v -576 -1664 0
v -512 -1664 0
v -1024 -1792 0
v -1088 -1792 0
v -1088 -1728 0
v -1024 -1728 0

# Texture cooridinates (Count = 4)
vt 0.8125 0.375
vt 0.84375 0.375
vt 0.84375 0.40625
vt 0.8125 0.40625

# Normal
vn 0 0 -1

# Mesh description
g untitled_mesh_0008

# Faces
f 1/1/1 2/2/1 3/3/1 4/4/1
f 5/1/1 6/2/1 7/3/1 8/4/1
f 9/1/1 10/2/1 11/3/1 12/4/1
f 13/1/1 14/2/1 15/3/1 16/4/1
f 17/1/1 18/2/1 19/3/1 20/4/1
f 21/1/1 22/2/1 23/3/1 24/4/1
f 25/1/1 26/2/1 27/3/1 28/4/1
f 29/1/1 30/2/1 31/3/1 32/4/1
f 33/1/1 34/2/1 35/3/1 36/4/1
f 37/1/1 38/2/1 39/3/1 40/4/1
f 41/1/1 42/2/1 43/3/1 44/4/1
f 45/1/1 46/2/1 47/3/1 48/4/1
f 49/1/1 50/2/1 51/3/1 52/4/1

