# Tiled2Unity generated file. Do not modify by hand.
# Wavefront file for 'untitled_mesh_0005.obj'

# Vertices (Count = 160)
v -704 -128 0
v -768 -128 0
v -768 -64 0
v -704 -64 0
v -704 -192 0
v -768 -192 0
v -768 -128 0
v -704 -128 0
v -1600 -384 0
v -1664 -384 0
v -1664 -320 0
v -1600 -320 0
v -1664 -384 0
v -1728 -384 0
v -1728 -320 0
v -1664 -320 0
v -1728 -384 0
v -1792 -384 0
v -1792 -320 0
v -1728 -320 0
v -512 -448 0
v -576 -448 0
v -576 -384 0
v -512 -384 0
v -1536 -448 0
v -1600 -448 0
v -1600 -384 0
v -1536 -384 0
v -1600 -448 0
v -1664 -448 0
v -1664 -384 0
v -1600 -384 0
v -1664 -448 0
v -1728 -448 0
v -1728 -384 0
v -1664 -384 0
v -1728 -448 0
v -1792 -448 0
v -1792 -384 0
v -1728 -384 0
v -1792 -448 0
v -1856 -448 0
v -1856 -384 0
v -1792 -384 0
v -512 -512 0
v -576 -512 0
v -576 -448 0
v -512 -448 0
v -1472 -512 0
v -1536 -512 0
v -1536 -448 0
v -1472 -448 0
v -1536 -512 0
v -1600 -512 0
v -1600 -448 0
v -1536 -448 0
v -1600 -512 0
v -1664 -512 0
v -1664 -448 0
v -1600 -448 0
v -1664 -512 0
v -1728 -512 0
v -1728 -448 0
v -1664 -448 0
v -1728 -512 0
v -1792 -512 0
v -1792 -448 0
v -1728 -448 0
v -1792 -512 0
v -1856 -512 0
v -1856 -448 0
v -1792 -448 0
v -512 -576 0
v -576 -576 0
v -576 -512 0
v -512 -512 0
v -1536 -576 0
v -1600 -576 0
v -1600 -512 0
v -1536 -512 0
v -1600 -576 0
v -1664 -576 0
v -1664 -512 0
v -1600 -512 0
v -1664 -576 0
v -1728 -576 0
v -1728 -512 0
v -1664 -512 0
v -1728 -576 0
v -1792 -576 0
v -1792 -512 0
v -1728 -512 0
v -1792 -576 0
v -1856 -576 0
v -1856 -512 0
v -1792 -512 0
v -1664 -640 0
v -1728 -640 0
v -1728 -576 0
v -1664 -576 0
v -1728 -640 0
v -1792 -640 0
v -1792 -576 0
v -1728 -576 0
v -384 -768 0
v -448 -768 0
v -448 -704 0
v -384 -704 0
v -512 -960 0
v -576 -960 0
v -576 -896 0
v -512 -896 0
v -1664 -1024 0
v -1728 -1024 0
v -1728 -960 0
v -1664 -960 0
v -448 -1088 0
v -512 -1088 0
v -512 -1024 0
v -448 -1024 0
v -448 -1216 0
v -512 -1216 0
v -512 -1152 0
v -448 -1152 0
v -384 -1600 0
v -448 -1600 0
v -448 -1536 0
v -384 -1536 0
v -256 -1728 0
v -320 -1728 0
v -320 -1664 0
v -256 -1664 0
v -1536 -1728 0
v -1600 -1728 0
v -1600 -1664 0
v -1536 -1664 0
v -1600 -1728 0
v -1664 -1728 0
v -1664 -1664 0
v -1600 -1664 0
v -1472 -1792 0
v -1536 -1792 0
v -1536 -1728 0
v -1472 -1728 0
v -1536 -1792 0
v -1600 -1792 0
v -1600 -1728 0
v -1536 -1728 0
v -256 -1856 0
v -320 -1856 0
v -320 -1792 0
v -256 -1792 0
v -1536 -1856 0
v -1600 -1856 0
v -1600 -1792 0
v -1536 -1792 0
v -384 -2048 0
v -448 -2048 0
v -448 -1984 0
v -384 -1984 0

# Texture cooridinates (Count = 14)
vt 0.46875 0.9375
vt 0.5 0.9375
vt 0.5 0.96875
vt 0.46875 0.96875
vt 0.34375 0.75
vt 0.375 0.75
vt 0.375 0.78125
vt 0.34375 0.78125
vt 0.5 0.59375
vt 0.53125 0.59375
vt 0.53125 0.625
vt 0.5 0.625
vt 0.3125 0.75
vt 0.3125 0.78125

# Normal
vn 0 0 -1

# Mesh description
g untitled_mesh_0005

# Faces
f 1/1/1 2/2/1 3/3/1 4/4/1
f 5/1/1 6/2/1 7/3/1 8/4/1
f 9/5/1 10/6/1 11/7/1 12/8/1
f 13/5/1 14/6/1 15/7/1 16/8/1
f 17/9/1 18/10/1 19/11/1 20/12/1
f 21/1/1 22/2/1 23/3/1 24/4/1
f 25/5/1 26/6/1 27/7/1 28/8/1
f 29/5/1 30/6/1 31/7/1 32/8/1
f 33/5/1 34/6/1 35/7/1 36/8/1
f 37/5/1 38/6/1 39/7/1 40/8/1
f 41/9/1 42/10/1 43/11/1 44/12/1
f 45/1/1 46/2/1 47/3/1 48/4/1
f 49/5/1 50/6/1 51/7/1 52/8/1
f 53/13/1 54/5/1 55/8/1 56/14/1
f 57/5/1 58/6/1 59/7/1 60/8/1
f 61/13/1 62/5/1 63/8/1 64/14/1
f 65/5/1 66/6/1 67/7/1 68/8/1
f 69/9/1 70/10/1 71/11/1 72/12/1
f 73/1/1 74/2/1 75/3/1 76/4/1
f 77/5/1 78/6/1 79/7/1 80/8/1
f 81/5/1 82/6/1 83/7/1 84/8/1
f 85/5/1 86/6/1 87/7/1 88/8/1
f 89/5/1 90/6/1 91/7/1 92/8/1
f 93/5/1 94/6/1 95/7/1 96/8/1
f 97/5/1 98/6/1 99/7/1 100/8/1
f 101/13/1 102/5/1 103/8/1 104/14/1
f 105/1/1 106/2/1 107/3/1 108/4/1
f 109/1/1 110/2/1 111/3/1 112/4/1
f 113/1/1 114/2/1 115/3/1 116/4/1
f 117/1/1 118/2/1 119/3/1 120/4/1
f 121/1/1 122/2/1 123/3/1 124/4/1
f 125/1/1 126/2/1 127/3/1 128/4/1
f 129/1/1 130/2/1 131/3/1 132/4/1
f 133/5/1 134/6/1 135/7/1 136/8/1
f 137/5/1 138/6/1 139/7/1 140/8/1
f 141/5/1 142/6/1 143/7/1 144/8/1
f 145/13/1 146/5/1 147/8/1 148/14/1
f 149/1/1 150/2/1 151/3/1 152/4/1
f 153/5/1 154/6/1 155/7/1 156/8/1
f 157/1/1 158/2/1 159/3/1 160/4/1

